{"title":"Cloud Atlas 2012 BRrip 1080P x264 MP4 - Ofek","uid":10162051,"size":6176976059,"categoryP":"video","categoryS":"hd___movies","magnet":"?xt=urn:btih:5af4494bd3fa058eaf7441afd22500e77a7a4bf5&amp;dn=Cloud+Atlas+2012+BRrip+1080P+x264+MP4+-+Ofek&amp;tr=udp%3A%2F%2Ftracker.openbittorrent.com%3A80&amp;tr=udp%3A%2F%2Fopen.demonii.com%3A1337&amp;tr=udp%3A%2F%2Ftracker.coppersurfer.tk%3A6969&amp;tr=udp%3A%2F%2Fexodus.desync.com%3A6969","seeders":0,"leechers":1,"uploader":"realOfek","files":2,"time":1400309466,"description":"Please leave feedback!\n\nSource: Bluray\n\nUsed denoise &amp; sharpening filters, looks extremely crisp. Subtitles were done myself, and are perfect. It took a very long time, in fact, because whoever did them at the studio was blatantly not a full-time English speaker (and no, I'm not talking about the future/valley talk).\n\nGeneral\nFormat : MPEG-4\nFormat profile : Base Media\nCodec ID : isom\nFile size : 5.75 GiB\nDuration : 2h 51mn\nOverall bit rate mode : Variable\nOverall bit rate : 4 789 Kbps\nEncoded date : UTC 2014-05-14 19:26:09\nTagged date : UTC 2014-05-14 19:26:09\n\nVideo\nID : 1\nFormat : AVC\nFormat/Info : Advanced Video Codec\nFormat profile : &lt;a class=&quot;__cf_email__&quot; href=&quot;/cdn-cgi/l/email-protection&quot; data-cfemail=&quot;7f371618173f334b514f&quot;&gt;[email&amp;#160;protected]&lt;/a&gt;&lt;script cf-hash='f9e31' type=&quot;text/javascript&quot;&gt;\n/* &lt;![CDATA[ */!function(){try{var t=&quot;currentScript&quot;in document?document.currentScript:function(){for(var t=document.getElementsByTagName(&quot;script&quot;),e=t.length;e--;)if(t[e].getAttribute(&quot;cf-hash&quot;))return t[e]}();if(t&amp;&amp;t.previousSibling){var e,r,n,i,c=t.previousSibling,a=c.getAttribute(&quot;data-cfemail&quot;);if(a){for(e=&quot;&quot;,r=parseInt(a.substr(0,2),16),n=2;a.length-n;n+=2)i=parseInt(a.substr(n,2),16)^r,e+=String.fromCharCode(i);e=document.createTextNode(e),c.parentNode.replaceChild(e,c)}}}catch(u){}}();/* ]]&gt; */&lt;/script&gt;\nFormat settings, CABAC : Yes\nFormat settings, ReFrames : 4 frames\nCodec ID : avc1\nCodec ID/Info : Advanced Video Coding\nDuration : 2h 51mn\nBit rate : 4 016 Kbps\nMaximum bit rate : 22.4 Mbps\nWidth : 1 920 pixels\nHeight : 800 pixels\nDisplay aspect ratio : 2.40:1\nFrame rate mode : Constant\nFrame rate : 23.976 fps\nColor space : YUV\nChroma subsampling : 4:2:0\nBit depth : 8 bits\nScan type : Progressive\nBits/(Pixel*Frame) : 0.109\nStream size : 4.82 GiB (84%)\nTitle : 1.h264 - Imported with GPAC 0.5.0-rev4065\nWriting library : x264 core 142 r2431 ac76440\nEncoding settings : cabac=1 / ref=4 / deblock=1:-1:-1 / analyse=0x3:0x133 / me=umh / subme=10 / psy=1 / psy_rd=1.00:0.15 / mixed_ref=1 / me_range=24 / chroma_me=1 / trellis=2 / 8x8dct=1 / cqm=0 / deadzone=21,11 / fast_pskip=1 / chroma_qp_offset=-3 / threads=12 / lookahead_threads=1 / sliced_threads=0 / nr=0 / decimate=1 / interlaced=0 / bluray_compat=0 / constrained_intra=0 / bframes=3 / b_pyramid=2 / b_adapt=2 / b_bias=0 / direct=3 / weightb=1 / open_gop=0 / weightp=2 / keyint=250 / keyint_min=23 / scenecut=40 / intra_refresh=0 / rc_lookahead=60 / rc=crf / mbtree=1 / crf=23.5 / qcomp=0.60 / qpmin=0 / qpmax=69 / qpstep=4 / ip_ratio=1.40 / aq=1:1.00\nLanguage : English\nEncoded date : UTC 2014-05-14 19:26:09\nTagged date : UTC 2014-05-14 19:34:15\n\nAudio #1\nID : 2\nFormat : AAC\nFormat/Info : Advanced Audio Codec\nFormat profile : LC\nCodec ID : 40\nDuration : 2h 51mn\nBit rate mode : Variable\nBit rate : 129 Kbps\nMaximum bit rate : 205 Kbps\nChannel(s) : 2 channels\nChannel positions : Front: L R\nSampling rate : 48.0 KHz\nCompression mode : Lossy\nStream size : 158 MiB (3%)\nLanguage : English\nEncoded date : UTC 2014-05-14 19:31:51\nTagged date : UTC 2014-05-14 19:34:15\n\nAudio #2\nID : 3\nFormat : AC-3\nFormat/Info : Audio Coding 3\nMode extension : CM (complete main)\nFormat settings, Endianness : Big\nCodec ID : ac-3\nDuration : 2h 51mn\nBit rate mode : Constant\nBit rate : 640 Kbps\nChannel(s) : 6 channels\nChannel positions : Front: L C R, Side: L R, LFE\nSampling rate : 48.0 KHz\nBit depth : 16 bits\nCompression mode : Lossy\nStream size : 787 MiB (13%)\nTitle : 6.ac3 - Imported with GPAC 0.5.0-rev4065\nLanguage : English\nEncoded date : UTC 2014-05-14 19:31:57\nTagged date : UTC 2014-05-14 19:34:15\n\nEnjoy! ","torrent":{"xt":"urn:btih:5af4494bd3fa058eaf7441afd22500e77a7a4bf5","amp;dn":"Cloud+Atlas+2012+BRrip+1080P+x264+MP4+-+Ofek","amp;tr":["udp%3A%2F%2Ftracker.openbittorrent.com%3A80","udp%3A%2F%2Fopen.demonii.com%3A1337","udp%3A%2F%2Ftracker.coppersurfer.tk%3A6969","udp%3A%2F%2Fexodus.desync.com%3A6969"],"infoHash":"5af4494bd3fa058eaf7441afd22500e77a7a4bf5","infoHashBuffer":{"type":"Buffer","data":[90,244,73,75,211,250,5,142,175,116,65,175,210,37,0,231,122,122,75,245]},"announce":[],"urlList":[]}}